<mxfile host="app.diagrams.net" modified="2022-11-24T12:41:55.747Z" agent="5.0 (Windows NT 10.0; Win64; x64) AppleWebKit/537.36 (KHTML, like Gecko) Chrome/107.0.0.0 Safari/537.36" etag="0UDNszwYaeP1pn9FzwY-" version="20.6.0" type="github">
  <diagram id="9-6xW6rfC3gySnhfwHB-" name="페이지-1">
    <mxGraphModel dx="1422" dy="729" grid="1" gridSize="10" guides="1" tooltips="1" connect="1" arrows="1" fold="1" page="1" pageScale="1" pageWidth="827" pageHeight="1169" math="0" shadow="0">
      <root>
        <mxCell id="0" />
        <mxCell id="1" parent="0" />
        <mxCell id="75-OL8s8YgrFIvC_JKFy-2" value="movies_movie" style="swimlane;childLayout=stackLayout;resizeParent=1;resizeParentMax=0;startSize=20;html=1;" parent="1" vertex="1">
          <mxGeometry x="210" y="140" width="240" height="420" as="geometry" />
        </mxCell>
        <mxCell id="75-OL8s8YgrFIvC_JKFy-3" value="id" style="swimlane;startSize=20;html=1;" parent="75-OL8s8YgrFIvC_JKFy-2" vertex="1">
          <mxGeometry y="20" width="120" height="400" as="geometry" />
        </mxCell>
        <mxCell id="75-OL8s8YgrFIvC_JKFy-4" value="type" style="swimlane;startSize=20;html=1;" parent="75-OL8s8YgrFIvC_JKFy-2" vertex="1">
          <mxGeometry x="120" y="20" width="120" height="400" as="geometry">
            <mxRectangle x="120" y="20" width="40" height="460" as="alternateBounds" />
          </mxGeometry>
        </mxCell>
        <mxCell id="75-OL8s8YgrFIvC_JKFy-5" value="&lt;font style=&quot;font-size: 14px;&quot;&gt;id&lt;br&gt;&lt;br&gt;user&lt;br&gt;&lt;br&gt;title&lt;br&gt;&lt;br&gt;poster_URL&lt;br&gt;&lt;br&gt;video_key&lt;br&gt;&lt;br&gt;release_date&lt;br&gt;&lt;br&gt;overview&lt;br&gt;&lt;br&gt;runtime&lt;br&gt;&lt;br&gt;popularity&lt;br&gt;&lt;br&gt;&lt;span style=&quot;color: rgb(51, 51, 51); font-family: -apple-system, BlinkMacSystemFont, &amp;quot;Helvetica Neue&amp;quot;, Arial, &amp;quot;Microsoft Yahei&amp;quot;, simsun, &amp;quot;Apple SD Gothic Neo&amp;quot;, NanumGothic, Dotum, 새굴림, sans-serif; text-align: left; background-color: rgb(255, 255, 255);&quot;&gt;season&lt;br&gt;&lt;/span&gt;&lt;br&gt;weather&lt;br&gt;&lt;/font&gt;" style="whiteSpace=wrap;html=1;" parent="1" vertex="1">
          <mxGeometry x="210" y="180" width="120" height="380" as="geometry" />
        </mxCell>
        <mxCell id="75-OL8s8YgrFIvC_JKFy-6" value="&lt;font style=&quot;font-size: 14px;&quot;&gt;integer&lt;br&gt;&lt;br&gt;integer&lt;br&gt;&lt;br&gt;char(50)&lt;br&gt;&lt;br&gt;URL(200)&lt;br&gt;&lt;br&gt;text&lt;br&gt;&lt;br&gt;text&lt;br&gt;&lt;br&gt;text&lt;br&gt;&lt;br&gt;integer&lt;br&gt;&lt;br&gt;float&lt;br&gt;&lt;br&gt;integer&lt;br&gt;&lt;br&gt;integer&lt;br&gt;&lt;/font&gt;" style="whiteSpace=wrap;html=1;" parent="1" vertex="1">
          <mxGeometry x="330" y="180" width="120" height="380" as="geometry" />
        </mxCell>
        <mxCell id="75-OL8s8YgrFIvC_JKFy-12" value="movies_movie_genres" style="swimlane;childLayout=stackLayout;resizeParent=1;resizeParentMax=0;startSize=20;html=1;" parent="1" vertex="1">
          <mxGeometry x="520.0000000000005" y="180" width="240" height="140" as="geometry" />
        </mxCell>
        <mxCell id="75-OL8s8YgrFIvC_JKFy-13" value="id" style="swimlane;startSize=20;html=1;" parent="75-OL8s8YgrFIvC_JKFy-12" vertex="1">
          <mxGeometry y="20" width="120" height="120" as="geometry" />
        </mxCell>
        <mxCell id="75-OL8s8YgrFIvC_JKFy-14" value="type" style="swimlane;startSize=20;html=1;" parent="75-OL8s8YgrFIvC_JKFy-12" vertex="1">
          <mxGeometry x="120" y="20" width="120" height="120" as="geometry">
            <mxRectangle x="120" y="20" width="40" height="460" as="alternateBounds" />
          </mxGeometry>
        </mxCell>
        <mxCell id="75-OL8s8YgrFIvC_JKFy-15" value="&lt;font style=&quot;font-size: 14px;&quot;&gt;id&lt;br&gt;&lt;br&gt;movie_id&lt;br&gt;&lt;br&gt;genre&lt;br&gt;&lt;/font&gt;" style="whiteSpace=wrap;html=1;" parent="1" vertex="1">
          <mxGeometry x="520" y="220" width="120" height="100" as="geometry" />
        </mxCell>
        <mxCell id="75-OL8s8YgrFIvC_JKFy-16" value="&lt;font style=&quot;font-size: 14px;&quot;&gt;integer&lt;br&gt;&lt;br&gt;integer&lt;br&gt;&lt;br&gt;char(100)&lt;br&gt;&lt;/font&gt;" style="whiteSpace=wrap;html=1;" parent="1" vertex="1">
          <mxGeometry x="640" y="220" width="120" height="100" as="geometry" />
        </mxCell>
        <mxCell id="75-OL8s8YgrFIvC_JKFy-17" value="movies_movie_like-users" style="swimlane;childLayout=stackLayout;resizeParent=1;resizeParentMax=0;startSize=20;html=1;" parent="1" vertex="1">
          <mxGeometry x="520.0000000000005" y="360" width="240" height="140" as="geometry" />
        </mxCell>
        <mxCell id="75-OL8s8YgrFIvC_JKFy-18" value="id" style="swimlane;startSize=20;html=1;" parent="75-OL8s8YgrFIvC_JKFy-17" vertex="1">
          <mxGeometry y="20" width="120" height="120" as="geometry" />
        </mxCell>
        <mxCell id="75-OL8s8YgrFIvC_JKFy-19" value="type" style="swimlane;startSize=20;html=1;" parent="75-OL8s8YgrFIvC_JKFy-17" vertex="1">
          <mxGeometry x="120" y="20" width="120" height="120" as="geometry">
            <mxRectangle x="120" y="20" width="40" height="460" as="alternateBounds" />
          </mxGeometry>
        </mxCell>
        <mxCell id="75-OL8s8YgrFIvC_JKFy-20" value="&lt;font style=&quot;font-size: 14px;&quot;&gt;id&lt;br&gt;&lt;br&gt;movie_id&lt;br&gt;&lt;br&gt;user_id&lt;br&gt;&lt;/font&gt;" style="whiteSpace=wrap;html=1;" parent="1" vertex="1">
          <mxGeometry x="520" y="400" width="120" height="100" as="geometry" />
        </mxCell>
        <mxCell id="75-OL8s8YgrFIvC_JKFy-21" value="&lt;font style=&quot;font-size: 14px;&quot;&gt;integer&lt;br&gt;&lt;br&gt;integer&lt;br&gt;&lt;br&gt;integer&lt;br&gt;&lt;/font&gt;" style="whiteSpace=wrap;html=1;" parent="1" vertex="1">
          <mxGeometry x="640" y="400" width="120" height="100" as="geometry" />
        </mxCell>
        <mxCell id="75-OL8s8YgrFIvC_JKFy-22" value="movies_reviews" style="swimlane;childLayout=stackLayout;resizeParent=1;resizeParentMax=0;startSize=20;html=1;" parent="1" vertex="1">
          <mxGeometry x="210" y="620" width="240" height="300" as="geometry" />
        </mxCell>
        <mxCell id="75-OL8s8YgrFIvC_JKFy-23" value="id" style="swimlane;startSize=20;html=1;" parent="75-OL8s8YgrFIvC_JKFy-22" vertex="1">
          <mxGeometry y="20" width="120" height="280" as="geometry" />
        </mxCell>
        <mxCell id="75-OL8s8YgrFIvC_JKFy-24" value="type" style="swimlane;startSize=20;html=1;" parent="75-OL8s8YgrFIvC_JKFy-22" vertex="1">
          <mxGeometry x="120" y="20" width="120" height="280" as="geometry">
            <mxRectangle x="120" y="20" width="40" height="460" as="alternateBounds" />
          </mxGeometry>
        </mxCell>
        <mxCell id="75-OL8s8YgrFIvC_JKFy-25" value="&lt;font style=&quot;font-size: 14px;&quot;&gt;id&lt;br&gt;&lt;br&gt;user&lt;br&gt;&lt;br&gt;title&lt;br&gt;&lt;br&gt;content&lt;br&gt;&lt;br&gt;img&lt;br&gt;&lt;br&gt;created_at&lt;br&gt;&lt;br&gt;updated_at&lt;br&gt;&lt;br&gt;movie_id&lt;br&gt;&lt;/font&gt;" style="whiteSpace=wrap;html=1;" parent="1" vertex="1">
          <mxGeometry x="210" y="660" width="120" height="260" as="geometry" />
        </mxCell>
        <mxCell id="75-OL8s8YgrFIvC_JKFy-26" value="&lt;font style=&quot;font-size: 14px;&quot;&gt;integer&lt;br&gt;&lt;br&gt;integer&lt;br&gt;&lt;br&gt;char(50)&lt;br&gt;&lt;br&gt;text&lt;br&gt;&lt;br&gt;img&lt;br&gt;&lt;br&gt;datetime&lt;br&gt;&lt;br&gt;datetime&lt;br&gt;&lt;br&gt;integer&lt;br&gt;&lt;/font&gt;" style="whiteSpace=wrap;html=1;" parent="1" vertex="1">
          <mxGeometry x="330" y="660" width="120" height="260" as="geometry" />
        </mxCell>
        <mxCell id="75-OL8s8YgrFIvC_JKFy-27" value="movies_comments" style="swimlane;childLayout=stackLayout;resizeParent=1;resizeParentMax=0;startSize=20;html=1;" parent="1" vertex="1">
          <mxGeometry x="520" y="720" width="240" height="240" as="geometry" />
        </mxCell>
        <mxCell id="75-OL8s8YgrFIvC_JKFy-28" value="id" style="swimlane;startSize=20;html=1;" parent="75-OL8s8YgrFIvC_JKFy-27" vertex="1">
          <mxGeometry y="20" width="120" height="220" as="geometry" />
        </mxCell>
        <mxCell id="75-OL8s8YgrFIvC_JKFy-29" value="type" style="swimlane;startSize=20;html=1;" parent="75-OL8s8YgrFIvC_JKFy-27" vertex="1">
          <mxGeometry x="120" y="20" width="120" height="220" as="geometry">
            <mxRectangle x="120" y="20" width="40" height="460" as="alternateBounds" />
          </mxGeometry>
        </mxCell>
        <mxCell id="75-OL8s8YgrFIvC_JKFy-30" value="&lt;font style=&quot;font-size: 14px;&quot;&gt;id&lt;br&gt;&lt;br&gt;user_id&lt;br&gt;&lt;br&gt;content&lt;br&gt;&lt;br&gt;created_at&lt;br&gt;&lt;br&gt;updated_at&lt;br&gt;&lt;br&gt;review_id&lt;br&gt;&lt;/font&gt;" style="whiteSpace=wrap;html=1;" parent="1" vertex="1">
          <mxGeometry x="520" y="760" width="120" height="200" as="geometry" />
        </mxCell>
        <mxCell id="75-OL8s8YgrFIvC_JKFy-31" value="&lt;font style=&quot;font-size: 14px;&quot;&gt;integer&lt;br&gt;&lt;br&gt;integer&lt;br&gt;&lt;br&gt;text&lt;br&gt;&lt;br&gt;datetime&lt;br&gt;&lt;br&gt;datetime&lt;br&gt;&lt;br&gt;integer&lt;br&gt;&lt;/font&gt;" style="whiteSpace=wrap;html=1;" parent="1" vertex="1">
          <mxGeometry x="640" y="760" width="120" height="200" as="geometry" />
        </mxCell>
        <mxCell id="75-OL8s8YgrFIvC_JKFy-32" value="accounts_user" style="swimlane;childLayout=stackLayout;resizeParent=1;resizeParentMax=0;startSize=20;html=1;" parent="1" vertex="1">
          <mxGeometry x="810" y="140" width="240" height="120" as="geometry" />
        </mxCell>
        <mxCell id="75-OL8s8YgrFIvC_JKFy-33" value="id" style="swimlane;startSize=20;html=1;" parent="75-OL8s8YgrFIvC_JKFy-32" vertex="1">
          <mxGeometry y="20" width="120" height="100" as="geometry" />
        </mxCell>
        <mxCell id="75-OL8s8YgrFIvC_JKFy-34" value="type" style="swimlane;startSize=20;html=1;" parent="75-OL8s8YgrFIvC_JKFy-32" vertex="1">
          <mxGeometry x="120" y="20" width="120" height="100" as="geometry">
            <mxRectangle x="120" y="20" width="40" height="460" as="alternateBounds" />
          </mxGeometry>
        </mxCell>
        <mxCell id="75-OL8s8YgrFIvC_JKFy-35" value="&lt;font style=&quot;font-size: 14px;&quot;&gt;id&lt;br&gt;&lt;br&gt;followings&lt;br&gt;&lt;/font&gt;" style="whiteSpace=wrap;html=1;" parent="1" vertex="1">
          <mxGeometry x="810" y="180" width="120" height="80" as="geometry" />
        </mxCell>
        <mxCell id="75-OL8s8YgrFIvC_JKFy-36" value="&lt;font style=&quot;font-size: 14px;&quot;&gt;integer&lt;br&gt;&lt;br&gt;integer&lt;br&gt;&lt;/font&gt;" style="whiteSpace=wrap;html=1;" parent="1" vertex="1">
          <mxGeometry x="930" y="180" width="120" height="80" as="geometry" />
        </mxCell>
        <mxCell id="75-OL8s8YgrFIvC_JKFy-37" value="accounts_notice" style="swimlane;childLayout=stackLayout;resizeParent=1;resizeParentMax=0;startSize=20;html=1;" parent="1" vertex="1">
          <mxGeometry x="520" y="990" width="240" height="170" as="geometry" />
        </mxCell>
        <mxCell id="75-OL8s8YgrFIvC_JKFy-38" value="id" style="swimlane;startSize=20;html=1;" parent="75-OL8s8YgrFIvC_JKFy-37" vertex="1">
          <mxGeometry y="20" width="120" height="150" as="geometry" />
        </mxCell>
        <mxCell id="75-OL8s8YgrFIvC_JKFy-39" value="type" style="swimlane;startSize=20;html=1;" parent="75-OL8s8YgrFIvC_JKFy-37" vertex="1">
          <mxGeometry x="120" y="20" width="120" height="150" as="geometry">
            <mxRectangle x="120" y="20" width="40" height="460" as="alternateBounds" />
          </mxGeometry>
        </mxCell>
        <mxCell id="75-OL8s8YgrFIvC_JKFy-40" value="&lt;font style=&quot;font-size: 14px;&quot;&gt;user&lt;br&gt;&lt;br&gt;review&lt;br&gt;&lt;br&gt;content&lt;br&gt;&lt;br&gt;is_checked&lt;br&gt;&lt;/font&gt;" style="whiteSpace=wrap;html=1;" parent="1" vertex="1">
          <mxGeometry x="520" y="1030" width="120" height="130" as="geometry" />
        </mxCell>
        <mxCell id="75-OL8s8YgrFIvC_JKFy-41" value="&lt;font style=&quot;font-size: 14px;&quot;&gt;integer&lt;br&gt;&lt;br&gt;integer&lt;br&gt;&lt;br&gt;char(100)&lt;br&gt;&lt;br&gt;boolean&lt;br&gt;&lt;/font&gt;" style="whiteSpace=wrap;html=1;" parent="1" vertex="1">
          <mxGeometry x="640" y="1030" width="120" height="130" as="geometry" />
        </mxCell>
        <mxCell id="75-OL8s8YgrFIvC_JKFy-42" value="movies_review_like_users" style="swimlane;childLayout=stackLayout;resizeParent=1;resizeParentMax=0;startSize=20;html=1;" parent="1" vertex="1">
          <mxGeometry x="520.0000000000005" y="550" width="240" height="140" as="geometry" />
        </mxCell>
        <mxCell id="75-OL8s8YgrFIvC_JKFy-43" value="id" style="swimlane;startSize=20;html=1;" parent="75-OL8s8YgrFIvC_JKFy-42" vertex="1">
          <mxGeometry y="20" width="120" height="120" as="geometry" />
        </mxCell>
        <mxCell id="75-OL8s8YgrFIvC_JKFy-44" value="type" style="swimlane;startSize=20;html=1;" parent="75-OL8s8YgrFIvC_JKFy-42" vertex="1">
          <mxGeometry x="120" y="20" width="120" height="120" as="geometry">
            <mxRectangle x="120" y="20" width="40" height="460" as="alternateBounds" />
          </mxGeometry>
        </mxCell>
        <mxCell id="75-OL8s8YgrFIvC_JKFy-45" value="&lt;font style=&quot;font-size: 14px;&quot;&gt;id&lt;br&gt;&lt;br&gt;review_id&lt;br&gt;&lt;br&gt;user_id&lt;br&gt;&lt;/font&gt;" style="whiteSpace=wrap;html=1;" parent="1" vertex="1">
          <mxGeometry x="520" y="590" width="120" height="100" as="geometry" />
        </mxCell>
        <mxCell id="75-OL8s8YgrFIvC_JKFy-46" value="&lt;font style=&quot;font-size: 14px;&quot;&gt;integer&lt;br&gt;&lt;br&gt;integer&lt;br&gt;&lt;br&gt;integer&lt;br&gt;&lt;/font&gt;" style="whiteSpace=wrap;html=1;" parent="1" vertex="1">
          <mxGeometry x="640" y="590" width="120" height="100" as="geometry" />
        </mxCell>
        <mxCell id="75-OL8s8YgrFIvC_JKFy-47" value="" style="endArrow=none;html=1;rounded=0;fontSize=14;" parent="1" edge="1">
          <mxGeometry width="50" height="50" relative="1" as="geometry">
            <mxPoint x="210" y="800" as="sourcePoint" />
            <mxPoint x="210" y="360" as="targetPoint" />
            <Array as="points">
              <mxPoint x="150" y="800" />
              <mxPoint x="150" y="360" />
            </Array>
          </mxGeometry>
        </mxCell>
        <mxCell id="75-OL8s8YgrFIvC_JKFy-48" value="" style="endArrow=none;html=1;rounded=0;fontSize=14;" parent="1" target="75-OL8s8YgrFIvC_JKFy-2" edge="1">
          <mxGeometry width="50" height="50" relative="1" as="geometry">
            <mxPoint x="920" y="140" as="sourcePoint" />
            <mxPoint x="207" y="320" as="targetPoint" />
            <Array as="points">
              <mxPoint x="920" y="110" />
              <mxPoint x="330" y="110" />
            </Array>
          </mxGeometry>
        </mxCell>
        <mxCell id="75-OL8s8YgrFIvC_JKFy-50" value="" style="edgeStyle=entityRelationEdgeStyle;fontSize=12;html=1;endArrow=ERoneToMany;startArrow=ERoneToMany;rounded=0;" parent="1" edge="1">
          <mxGeometry width="100" height="100" relative="1" as="geometry">
            <mxPoint x="450" y="730" as="sourcePoint" />
            <mxPoint x="520" y="630" as="targetPoint" />
          </mxGeometry>
        </mxCell>
        <mxCell id="75-OL8s8YgrFIvC_JKFy-51" value="" style="edgeStyle=entityRelationEdgeStyle;fontSize=12;html=1;endArrow=ERoneToMany;startArrow=ERoneToMany;rounded=0;" parent="1" edge="1">
          <mxGeometry width="100" height="100" relative="1" as="geometry">
            <mxPoint x="450" y="510" as="sourcePoint" />
            <mxPoint x="520" y="410" as="targetPoint" />
          </mxGeometry>
        </mxCell>
        <mxCell id="75-OL8s8YgrFIvC_JKFy-52" value="" style="edgeStyle=entityRelationEdgeStyle;fontSize=12;html=1;endArrow=ERoneToMany;startArrow=ERoneToMany;rounded=0;" parent="1" edge="1">
          <mxGeometry width="100" height="100" relative="1" as="geometry">
            <mxPoint x="450" y="340" as="sourcePoint" />
            <mxPoint x="520" y="240" as="targetPoint" />
          </mxGeometry>
        </mxCell>
        <mxCell id="75-OL8s8YgrFIvC_JKFy-55" value="movies_review_like_users" style="swimlane;childLayout=stackLayout;resizeParent=1;resizeParentMax=0;startSize=20;html=1;" parent="1" vertex="1">
          <mxGeometry x="210.00000000000045" y="960" width="240" height="140" as="geometry" />
        </mxCell>
        <mxCell id="75-OL8s8YgrFIvC_JKFy-56" value="id" style="swimlane;startSize=20;html=1;" parent="75-OL8s8YgrFIvC_JKFy-55" vertex="1">
          <mxGeometry y="20" width="120" height="120" as="geometry" />
        </mxCell>
        <mxCell id="75-OL8s8YgrFIvC_JKFy-57" value="type" style="swimlane;startSize=20;html=1;" parent="75-OL8s8YgrFIvC_JKFy-55" vertex="1">
          <mxGeometry x="120" y="20" width="120" height="120" as="geometry">
            <mxRectangle x="120" y="20" width="40" height="460" as="alternateBounds" />
          </mxGeometry>
        </mxCell>
        <mxCell id="75-OL8s8YgrFIvC_JKFy-58" value="&lt;font style=&quot;font-size: 14px;&quot;&gt;id&lt;br&gt;&lt;br&gt;review_id&lt;br&gt;&lt;br&gt;user_id&lt;br&gt;&lt;/font&gt;" style="whiteSpace=wrap;html=1;" parent="1" vertex="1">
          <mxGeometry x="210" y="1000" width="120" height="100" as="geometry" />
        </mxCell>
        <mxCell id="75-OL8s8YgrFIvC_JKFy-59" value="&lt;font style=&quot;font-size: 14px;&quot;&gt;integer&lt;br&gt;&lt;br&gt;integer&lt;br&gt;&lt;br&gt;integer&lt;br&gt;&lt;/font&gt;" style="whiteSpace=wrap;html=1;" parent="1" vertex="1">
          <mxGeometry x="330" y="1000" width="120" height="100" as="geometry" />
        </mxCell>
        <mxCell id="75-OL8s8YgrFIvC_JKFy-60" value="" style="edgeStyle=entityRelationEdgeStyle;fontSize=12;html=1;endArrow=ERzeroToMany;startArrow=ERmandOne;rounded=0;exitX=1.011;exitY=0.183;exitDx=0;exitDy=0;exitPerimeter=0;" parent="1" edge="1">
          <mxGeometry width="100" height="100" relative="1" as="geometry">
            <mxPoint x="450" y="878.5799999999999" as="sourcePoint" />
            <mxPoint x="518.6800000000003" y="780" as="targetPoint" />
          </mxGeometry>
        </mxCell>
        <mxCell id="75-OL8s8YgrFIvC_JKFy-61" value="" style="edgeStyle=entityRelationEdgeStyle;fontSize=12;html=1;endArrow=ERoneToMany;startArrow=ERoneToMany;rounded=0;exitX=0;exitY=0.75;exitDx=0;exitDy=0;" parent="1" source="75-OL8s8YgrFIvC_JKFy-30" target="75-OL8s8YgrFIvC_JKFy-59" edge="1">
          <mxGeometry width="100" height="100" relative="1" as="geometry">
            <mxPoint x="410" y="970" as="sourcePoint" />
            <mxPoint x="484" y="950" as="targetPoint" />
          </mxGeometry>
        </mxCell>
        <mxCell id="75-OL8s8YgrFIvC_JKFy-64" value="accounts_profile" style="swimlane;childLayout=stackLayout;resizeParent=1;resizeParentMax=0;startSize=20;html=1;" parent="1" vertex="1">
          <mxGeometry x="810" y="285" width="240" height="875" as="geometry" />
        </mxCell>
        <mxCell id="75-OL8s8YgrFIvC_JKFy-65" value="id" style="swimlane;startSize=20;html=1;" parent="75-OL8s8YgrFIvC_JKFy-64" vertex="1">
          <mxGeometry y="20" width="120" height="855" as="geometry" />
        </mxCell>
        <mxCell id="75-OL8s8YgrFIvC_JKFy-66" value="type" style="swimlane;startSize=20;html=1;" parent="75-OL8s8YgrFIvC_JKFy-64" vertex="1">
          <mxGeometry x="120" y="20" width="120" height="855" as="geometry">
            <mxRectangle x="120" y="20" width="40" height="460" as="alternateBounds" />
          </mxGeometry>
        </mxCell>
        <mxCell id="75-OL8s8YgrFIvC_JKFy-67" value="&lt;font style=&quot;font-size: 14px;&quot;&gt;id&lt;br&gt;&lt;br&gt;self_introduction&lt;br&gt;&lt;br&gt;age&lt;br&gt;&lt;br&gt;gender&lt;br&gt;&lt;br&gt;nick_name&lt;br&gt;&lt;br&gt;img&lt;br&gt;&lt;br&gt;action&lt;br&gt;&lt;br&gt;adventure&lt;br&gt;&lt;br&gt;animation&lt;br&gt;&lt;br&gt;comedy&lt;br&gt;&lt;br&gt;crime&lt;br&gt;&lt;br&gt;documentary&lt;br&gt;&lt;br&gt;drama&lt;br&gt;&lt;br&gt;family&lt;br&gt;&lt;br&gt;fantasy&lt;br&gt;&lt;br&gt;history&lt;br&gt;&lt;br&gt;horror&lt;br&gt;&lt;br&gt;music&lt;br&gt;&lt;br&gt;mystery&lt;br&gt;&lt;br&gt;romance&lt;br&gt;&lt;br&gt;science&lt;br&gt;&lt;br&gt;tv&lt;br&gt;&lt;br&gt;thriller&lt;br&gt;&lt;br&gt;war&lt;br&gt;&lt;br&gt;western&lt;br&gt;&lt;/font&gt;" style="whiteSpace=wrap;html=1;" parent="1" vertex="1">
          <mxGeometry x="810" y="325" width="120" height="835" as="geometry" />
        </mxCell>
        <mxCell id="75-OL8s8YgrFIvC_JKFy-68" value="&lt;font style=&quot;font-size: 14px;&quot;&gt;integer&lt;br&gt;&lt;br&gt;text&lt;br&gt;&lt;br&gt;integer&lt;br&gt;&lt;br&gt;char(50)&lt;br&gt;&lt;br&gt;char(50)&lt;br&gt;&lt;br&gt;img&lt;br&gt;&lt;br&gt;integer&lt;br&gt;&lt;br&gt;integer&lt;br&gt;&lt;br&gt;integer&lt;br&gt;&lt;br&gt;integer&lt;br&gt;&lt;br&gt;integer&lt;br&gt;&lt;br&gt;integer&lt;br&gt;&lt;br&gt;integer&lt;br&gt;&lt;br&gt;integer&lt;br&gt;&lt;br&gt;integer&lt;br&gt;&lt;br&gt;integer&lt;br&gt;&lt;br&gt;integer&lt;br&gt;&lt;br&gt;integer&lt;br&gt;&lt;br&gt;integer&lt;br&gt;&lt;br&gt;integer&lt;br&gt;&lt;br&gt;integer&lt;br&gt;&lt;br&gt;integer&lt;br&gt;&lt;br&gt;integer&lt;br&gt;&lt;br&gt;integer&lt;br&gt;&lt;br&gt;integer&lt;br&gt;&lt;/font&gt;" style="whiteSpace=wrap;html=1;" parent="1" vertex="1">
          <mxGeometry x="930" y="325" width="120" height="835" as="geometry" />
        </mxCell>
        <mxCell id="75-OL8s8YgrFIvC_JKFy-72" value="" style="endArrow=none;html=1;rounded=0;fontSize=14;exitX=0;exitY=1;exitDx=0;exitDy=0;entryX=0.5;entryY=0;entryDx=0;entryDy=0;" parent="1" source="75-OL8s8YgrFIvC_JKFy-36" target="75-OL8s8YgrFIvC_JKFy-64" edge="1">
          <mxGeometry width="50" height="50" relative="1" as="geometry">
            <mxPoint x="930" y="150" as="sourcePoint" />
            <mxPoint x="340" y="150" as="targetPoint" />
            <Array as="points">
              <mxPoint x="930" y="280" />
            </Array>
          </mxGeometry>
        </mxCell>
        <mxCell id="75-OL8s8YgrFIvC_JKFy-73" value="" style="edgeStyle=entityRelationEdgeStyle;fontSize=12;html=1;endArrow=ERoneToMany;startArrow=ERoneToMany;rounded=0;entryX=-0.017;entryY=0.638;entryDx=0;entryDy=0;entryPerimeter=0;exitX=1.033;exitY=0.923;exitDx=0;exitDy=0;exitPerimeter=0;" parent="1" source="75-OL8s8YgrFIvC_JKFy-26" target="75-OL8s8YgrFIvC_JKFy-40" edge="1">
          <mxGeometry width="100" height="100" relative="1" as="geometry">
            <mxPoint x="450" y="830" as="sourcePoint" />
            <mxPoint x="520" y="730" as="targetPoint" />
          </mxGeometry>
        </mxCell>
      </root>
    </mxGraphModel>
  </diagram>
</mxfile>
